HIERARCHY
ROOT Hips
{
	OFFSET	0.00	0.00	0.00
	CHANNELS 6 Xposition Yposition Zposition Zrotation Xrotation Yrotation
	JOINT LeftUpLeg
	{
		OFFSET	 0.126116	-0.014019	-0.065224
		CHANNELS 3 Zrotation Xrotation Yrotation
		JOINT LeftLeg
		{
			OFFSET	 0.000000	 0.000000	 0.569914
			CHANNELS 3 Zrotation Xrotation Yrotation
			JOINT LeftFoot
			{
				OFFSET	 0.000000	 0.000000	 0.544423
				CHANNELS 3 Zrotation Xrotation Yrotation
				JOINT LeftToeBase
				{
					OFFSET	 0.000000	 0.000000	 0.207117
					CHANNELS 3 Zrotation Xrotation Yrotation
					End Site
					{
						OFFSET	 0.000000	 0.000000	 0.207117
					}
				}
			}
		}
	}
	JOINT RightUpLeg
	{
		OFFSET	-0.124023	-0.008373	-0.065224
		CHANNELS 3 Zrotation Xrotation Yrotation
		JOINT RightLeg
		{
			OFFSET	 0.000000	 0.000000	 0.570047
			CHANNELS 3 Zrotation Xrotation Yrotation
			JOINT RightFoot
			{
				OFFSET	 0.000000	 0.000000	 0.544354
				CHANNELS 3 Zrotation Xrotation Yrotation
				JOINT RightToeBase
				{
					OFFSET	 0.000000	 0.000000	 0.207540
					CHANNELS 3 Zrotation Xrotation Yrotation
					End Site
					{
						OFFSET	 0.000000	 0.000000	 0.207540
					}
				}
			}
		}
	}
	JOINT Spine
	{
		OFFSET	 0.000184	-0.007763	 0.117403
		CHANNELS 3 Zrotation Xrotation Yrotation
		JOINT Spine1
		{
			OFFSET	 0.000000	 0.000000	 0.137269
			CHANNELS 3 Zrotation Xrotation Yrotation
			JOINT Spine2
			{
				OFFSET	 0.000000	 0.000000	 0.156879
				CHANNELS 3 Zrotation Xrotation Yrotation
				JOINT LeftShoulder
				{
					OFFSET	 0.080501	-0.002496	 0.160144
					CHANNELS 3 Zrotation Xrotation Yrotation
					JOINT LeftArm
					{
						OFFSET	 0.000000	 0.000000	 0.164363
						CHANNELS 3 Zrotation Xrotation Yrotation
						JOINT LeftForeArm
						{
							OFFSET	 0.000000	 0.000000	 0.364576
							CHANNELS 3 Zrotation Xrotation Yrotation
							JOINT LeftHand
							{
								OFFSET	 0.000000	 0.000000	 0.360812
								CHANNELS 3 Zrotation Xrotation Yrotation
								JOINT LeftHandIndex1
								{
									OFFSET	 0.000000	 0.000000	 0.086006
									CHANNELS 3 Zrotation Xrotation Yrotation
									JOINT LeftHandIndex2
									{
										OFFSET	 0.000000	 0.000000	 0.047236
										CHANNELS 3 Zrotation Xrotation Yrotation
										JOINT LeftHandIndex3
										{
											OFFSET	-0.004284	-0.000551	 0.038166
											CHANNELS 3 Zrotation Xrotation Yrotation
											End Site
											{
												OFFSET	-0.004284	-0.000551	 0.038166
											}
										}
									}
								}
							}
						}
					}
				}
				JOINT Neck
				{
					OFFSET	 0.000000	 0.000000	 0.176489
					CHANNELS 3 Zrotation Xrotation Yrotation
					JOINT Head
					{
						OFFSET	 0.000000	-0.001747	 0.077940
						CHANNELS 3 Zrotation Xrotation Yrotation
						End Site
						{
							OFFSET	 0.000000	-0.001747	 0.077940
						}
					}
				}
				JOINT RightShoulder
				{
					OFFSET	-0.080363	 0.000306	 0.159706
					CHANNELS 3 Zrotation Xrotation Yrotation
					JOINT RightArm
					{
						OFFSET	 0.000000	 0.000000	 0.164196
						CHANNELS 3 Zrotation Xrotation Yrotation
						JOINT RightForeArm
						{
							OFFSET	 0.000000	 0.000000	 0.365611
							CHANNELS 3 Zrotation Xrotation Yrotation
							JOINT RightHand
							{
								OFFSET	 0.000000	 0.000000	 0.360648
								CHANNELS 3 Zrotation Xrotation Yrotation
								JOINT RightHandIndex1
								{
									OFFSET	 0.000000	 0.000000	 0.069977
									CHANNELS 3 Zrotation Xrotation Yrotation
									JOINT RightHandIndex2
									{
										OFFSET	 0.000000	 0.000000	 0.052305
										CHANNELS 3 Zrotation Xrotation Yrotation
										JOINT RightHandIndex3
										{
											OFFSET	 0.009002	-0.000782	 0.042196
											CHANNELS 3 Zrotation Xrotation Yrotation
											End Site
											{
												OFFSET	 0.009002	-0.000782	 0.042196
											}
										}
									}
								}
							}
						}
					}
				}
			}
		}
	}
}
MOTION
Frames:    9
Frame Time: 0.03333334
-0.000266	 0.010489	 1.271124	 0.000584	 0.017060	 0.023087	 19.018610	-2.372534	 175.816800	 1.489294	-10.586670	-0.616074	-8.289130	 68.724750	 2.380502	-2.385833	 28.452760	 0.000004	-19.151270	-2.383036	-175.816700	-1.472566	-10.866950	 0.621144	 8.363301	 69.124640	-2.615963	 2.384658	 28.388730	 0.000004	 33.408900	 1.716276	 0.095531	-0.106054	 7.073709	-0.015571	 0.369895	-9.035495	 0.092464	-91.776180	 78.527450	 180.000000	 43.090080	 31.504820	-53.135750	-26.291700	 3.093155	-8.811614	-43.055850	 1.544093	-3.991142	-2.635965	 4.993658	 6.788941	-5.165319	 0.784187	 3.516649	-5.225038	 0.466231	 0.424329	-0.000002	-3.783157	-0.089647	 0.368615	 2.993645	-0.009646	 89.782140	 78.203890	 180.000000	-1.091084	 12.497000	 108.065200	-16.173580	 2.785272	 8.950643	 17.827010	-1.514697	-5.919564	 6.112037	 4.509576	-0.364401	 4.968462	 1.518543	-9.347576	 5.168945	 0.703820	 2.021906
-0.000285	 0.009799	 1.271380	 0.000081	 0.017204	 0.017373	 19.028900	-2.247125	 175.810400	 1.491886	-10.346340	-0.601774	-8.228877	 68.576070	 2.317234	-2.385833	 28.452760	 0.000004	-19.151970	-2.354795	-175.800300	-1.472507	-10.872090	 0.621447	 8.399001	 69.123810	-2.655668	 2.384658	 28.388730	 0.000004	 34.389310	 1.715089	 0.089117	-0.030429	 7.078430	 0.009683	 0.144245	-9.041928	 0.031200	-91.776160	 78.527470	 180.000000	 43.156680	 31.511600	-53.216930	-24.422740	 2.533784	-8.009588	-42.226220	 1.474714	-4.015523	-2.635965	 4.993658	 6.788941	-5.165319	 0.784187	 3.516649	-5.225038	 0.466231	 0.424329	-0.000002	-3.783157	-0.089647	 0.157293	 2.991786	-0.004121	 89.782100	 78.203850	 180.000000	-1.144275	 12.550430	 108.068300	-18.098840	 2.221784	 8.140425	 17.000880	-1.486427	-5.951469	 6.112037	 4.509576	-0.364401	 4.968462	 1.518543	-9.347576	 5.168945	 0.703820	 2.021906
-0.000291	 0.009111	 1.271570	-0.000253	 0.017415	 0.011225	 19.031240	-2.227234	 175.812400	 1.492126	-10.323830	-0.600440	-8.227888	 68.537580	 2.317651	-2.385833	 28.452760	 0.000004	-19.152800	-2.326818	-175.783800	-1.472463	-10.876200	 0.621687	 8.433664	 69.122570	-2.694170	 2.384658	 28.388730	 0.000004	 34.925910	 1.715140	 0.083094	 0.043669	 7.078890	 0.035353	-0.077434	-9.042632	-0.029389	-91.776230	 78.527470	-180.000000	 43.229320	 31.532670	-53.319090	-22.532690	 2.029325	-7.178937	-41.389140	 1.244593	-4.075060	-2.635965	 4.993658	 6.788941	-5.165319	 0.784187	 3.516649	-5.225038	 0.466231	 0.424329	-0.000002	-3.783157	-0.089647	-0.050245	 2.991377	 0.001298	 89.782100	 78.203890	 180.000000	-1.160032	 12.619660	 108.060100	-20.049070	 1.712809	 7.299464	 16.144400	-1.625369	-5.949360	 6.112037	 4.509576	-0.364401	 4.968462	 1.518543	-9.347576	 5.168945	 0.703820	 2.021906
-0.000287	 0.008485	 1.271675	-0.000425	 0.017668	 0.005204	 19.033300	-2.208310	 175.814600	 1.492372	-10.301550	-0.599112	-8.226437	 68.502060	 2.317415	-2.385833	 28.452760	 0.000004	-19.153720	-2.301507	-175.768600	-1.472438	-10.878850	 0.621841	 8.464185	 69.120940	-2.728123	 2.384658	 28.388730	 0.000004	 35.055440	 1.716210	 0.077964	 0.109792	 7.075856	 0.059184	-0.275759	-9.038612	-0.083993	-91.776200	 78.527470	-180.000000	 43.303900	 31.561600	-53.433130	-20.795430	 1.619043	-6.398848	-40.620780	 0.906068	-4.151260	-2.635965	 4.993658	 6.788941	-5.165319	 0.784187	 3.516649	-5.225038	 0.466231	 0.424329	-0.000002	-3.783157	-0.089647	-0.235894	 2.992251	 0.006147	 89.782170	 78.203900	 179.999900	-1.104832	 12.697580	 108.050100	-21.840910	 1.298574	 6.511717	 15.334980	-1.875097	-5.926047	 6.112037	 4.509576	-0.364401	 4.968462	 1.518543	-9.347576	 5.168945	 0.703820	 2.021906
-0.000281	 0.007779	 1.271792	-0.000590	 0.017874	-0.001805	 19.035560	-2.187235	 175.817400	 1.492620	-10.277290	-0.597671	-8.224950	 68.462490	 2.317305	-2.385833	 28.452760	 0.000004	-19.154760	-2.273437	-175.751200	-1.472393	-10.882780	 0.622070	 8.498764	 69.119610	-2.766597	 2.384658	 28.388730	 0.000004	 34.810570	 1.718577	 0.072294	 0.184092	 7.068790	 0.086324	-0.498820	-9.028899	-0.145499	-91.776150	 78.527470	 180.000000	 43.398240	 31.599790	-53.581990	-18.790050	 1.210478	-5.482963	-39.734860	 0.378419	-4.254980	-2.635965	 4.993658	 6.788941	-5.165319	 0.784187	 3.516649	-5.225038	 0.466231	 0.424329	-0.000002	-3.783157	-0.089647	-0.444717	 2.994498	 0.011610	 89.782100	 78.203850	 180.000000	-1.201639	 12.769990	 108.010600	-23.913320	 0.884768	 5.580496	 14.384570	-2.279600	-5.884616	 6.112037	 4.509576	-0.364401	 4.968462	 1.518543	-9.347576	 5.168945	 0.703820	 2.021906
-0.000280	 0.007178	 1.271949	-0.000732	 0.017969	-0.007995	 19.037520	-2.169286	 175.819900	 1.492834	-10.257150	-0.596474	-8.223834	 68.428700	 2.317420	-2.385833	 28.452760	 0.000004	-19.155640	-2.249264	-175.736100	-1.472350	-10.886490	 0.622288	 8.528697	 69.118640	-2.799873	 2.384658	 28.388730	 0.000004	 34.270370	 1.721608	 0.067453	 0.248123	 7.059668	 0.109919	-0.691141	-9.016171	-0.198533	-91.776210	 78.527490	-180.000000	 43.484850	 31.639490	-53.726260	-17.017270	 0.903953	-4.657603	-38.952370	-0.198857	-4.353161	-2.635965	 4.993658	 6.788941	-5.165319	 0.784187	 3.516649	-5.225038	 0.466231	 0.424329	-0.000002	-3.783157	-0.089647	-0.624852	 2.997788	 0.016337	 89.782120	 78.203900	 180.000000	-1.606324	 12.778870	 107.924500	-25.745700	 0.576052	 4.746076	 13.526260	-2.739301	-5.841796	 6.112037	 4.509576	-0.364401	 4.968462	 1.518543	-9.347576	 5.168945	 0.703820	 2.021906
-0.000291	 0.006489	 1.272262	-0.000879	 0.017988	-0.015524	 19.039740	-2.148444	 175.823100	 1.493069	-10.234430	-0.595124	-8.222745	 68.389530	 2.317756	-2.385833	 28.452760	 0.000004	-19.156680	-2.221130	-175.718200	-1.472291	-10.891500	 0.622582	 8.563983	 69.117840	-2.839123	 2.384658	 28.388730	 0.000004	 33.253990	 1.726348	 0.061879	 0.323030	 7.045284	 0.137994	-0.916364	-8.995996	-0.260711	-91.776120	 78.527450	 179.999900	 43.588810	 31.690780	-53.904720	-14.893200	 0.608309	-3.657862	-38.014720	-1.015247	-4.470181	-2.635965	 4.993658	 6.788941	-5.165319	 0.784187	 3.516649	-5.225038	 0.466231	 0.424329	-0.000002	-3.783157	-0.089647	-0.835855	 3.002781	 0.021894	 89.782110	 78.203920	 180.000000	-2.642212	 12.674480	 107.741100	-27.939600	 0.275990	 3.736838	 12.367720	-3.365645	-5.794147	 6.112037	 4.509576	-0.364401	 4.968462	 1.518543	-9.347576	 5.168945	 0.703820	 2.021906
-0.000312	 0.005903	 1.272642	-0.000984	 0.017932	-0.022258	 19.041650	-2.130621	 175.826100	 1.493276	-10.215590	-0.594006	-8.221972	 68.355800	 2.318257	-2.385833	 28.452760	 0.000004	-19.157560	-2.196780	-175.702400	-1.472242	-10.896390	 0.622869	 8.594929	 69.117410	-2.873486	 2.384658	 28.388730	 0.000004	 32.039250	 1.731507	 0.057088	 0.388004	 7.029534	 0.162726	-1.111923	-8.973862	-0.314689	-91.776250	 78.527470	-180.000000	 43.686110	 31.739200	-54.074840	-13.009590	 0.410179	-2.762430	-37.181950	-1.843167	-4.566445	-2.635965	 4.993658	 6.788941	-5.165319	 0.784187	 3.516649	-5.225038	 0.466231	 0.424329	-0.000002	-3.783157	-0.089647	-1.019190	 3.008460	 0.026750	 89.782140	 78.203870	 180.000000	-4.015675	 12.496910	 107.543400	-29.883360	 0.075353	 2.827186	 11.146920	-3.948828	-5.761449	 6.112037	 4.509576	-0.364401	 4.968462	 1.518543	-9.347576	 5.168945	 0.703820	 2.021906
-0.000341	 0.005255	 1.273139	-0.001086	 0.017775	-0.029986	 19.043750	-2.110792	 175.829700	 1.493491	-10.195220	-0.592794	-8.221263	 68.318340	 2.318988	-2.385833	 28.452760	 0.000004	-19.158580	-2.169549	-175.684500	-1.472169	-10.902300	 0.623214	 8.629750	 69.117160	-2.912194	 2.384658	 28.388730	 0.000004	 30.321840	 1.738449	 0.051766	 0.460555	 7.008350	 0.190687	-1.330456	-8.943983	-0.374933	-91.776150	 78.527430	 180.000000	 43.799760	 31.801430	-54.280320	-10.865200	 0.257916	-1.736547	-36.230860	-2.894010	-4.659839	-2.635965	 4.993658	 6.788941	-5.165319	 0.784187	 3.516649	-5.225038	 0.466231	 0.424329	-0.000002	-3.783157	-0.089647	-1.224229	 3.016217	 0.032218	 89.782120	 78.203870	 180.000000	-5.935334	 12.220750	 107.233000	-32.096030	-0.080834	 1.789284	 9.735859	-4.716778	-5.737091	 6.112037	 4.509576	-0.364401	 4.968462	 1.518543	-9.347576	 5.168945	 0.703820	 2.021906
